<svg width="1471" height="442" viewBox="0 0 1471 442" fill="none" xmlns="http://www.w3.org/2000/svg">
<path d="M207.33 59.5974C216.526 48.1022 203.352 30.3706 194.828 23.6931C179.705 11.8471 162.733 2.69073 143.108 6.16844C127.154 8.99586 108.991 18.3833 99.1898 31.6006C86.8078 48.2976 88.841 66.6829 97.9075 84.8159C112.921 114.843 135.187 141.803 153.367 169.982C182.237 214.731 127.438 270.144 88.7177 287.419C63.181 298.812 36.2227 301.598 10.0703 309.645C-2.59502 313.542 13.2225 301.791 16.9092 298.104" stroke="#00A1FC" stroke-width="10" stroke-linecap="round"/>
<path d="M201.56 198.085V292.334" stroke="#00A1FC" stroke-width="10" stroke-linecap="round"/>
<path d="M211.177 151.923C211.177 155.96 211.172 159.191 216.52 157.266C222.373 155.159 216.62 142.595 215.024 139.313C206.285 121.351 196.92 151.289 202.521 155.77C208.663 160.683 221.97 151.814 224.534 145.404C224.581 145.286 222.383 141.247 221.649 141.771C218.907 143.73 215.024 150.433 215.024 153.846" stroke="#00A1FC" stroke-width="10" stroke-linecap="round"/>
<path d="M316.966 205.779C324.501 193.535 313.419 167.629 301.579 161.54C281.148 151.032 259.741 192.708 257.34 206.634C252.68 233.658 268.067 286.457 304.784 264.124C336.021 245.124 342.712 205.797 355.328 174.256C360.822 160.522 350.141 203.495 349.772 218.281C348.636 263.728 354.97 317.123 332.995 358.8C326.448 371.216 318.889 384.881 306.387 392.139C292.918 399.96 273.172 400.073 257.981 400.902C252.18 401.218 216.639 402.586 222.718 390.43" stroke="#00A1FC" stroke-width="10" stroke-linecap="round"/>
<path d="M390.057 184.621C386.83 220.124 374.67 254.43 374.67 290.624C374.67 302.184 378.107 267.751 380.44 256.43C386.016 229.369 392.934 201.485 408.009 177.889C414.43 167.84 440.694 161.377 449.577 171.371C460.976 184.195 458.893 213.968 459.194 229.502C459.518 246.155 457.378 262.509 457.378 279.084C457.378 287.45 461.717 262.918 464.217 254.934C470.115 236.091 478.798 218.104 492 203.215C509.209 183.804 519.81 192.425 525.553 215.396C530.763 236.236 529.808 259.476 530.362 280.793C530.551 288.092 528.449 308.667 532.499 302.592C535.492 298.103 539.018 294.897 542.009 290.411" stroke="#00A1FC" stroke-width="10" stroke-linecap="round"/>
<path d="M603.559 269.253C604.29 265.236 607.251 260.415 610.291 257.712C615.421 253.152 613.238 240.517 613.177 234.417C613.085 225.282 610.194 175.75 593.622 179.065C581.85 181.419 572.59 192.39 564.663 200.436C547.296 218.064 524.915 240.071 515.081 263.269C512.892 268.432 506.782 281.766 510.379 287.419C516.969 297.773 548.041 280.658 554.405 276.84C587.352 257.071 615.034 213.064 616.917 174.47C617.7 158.404 613.438 175.802 611.253 182.057C599.679 215.191 595.704 247.907 597.575 283.144C598.195 294.814 598.23 328.137 612.642 334.543C625.075 340.069 643.904 333.43 655.599 328.666C677.425 319.774 698.423 310.953 715.119 294.257" stroke="#00A1FC" stroke-width="10" stroke-linecap="round"/>
<path d="M805.521 90.3725C799.787 91.0892 797.878 103.333 796.972 106.829C789.992 133.778 786.066 161.253 783.081 188.896C776.023 254.251 770.776 319.837 767.907 385.514C767.398 397.174 766.587 409.275 767.159 420.991C767.17 421.214 767.136 425.806 768.548 426.12C769.54 426.341 770.86 421.902 770.899 421.205C771.162 416.477 772.822 412.727 772.822 407.741" stroke="#00A1FC" stroke-width="10" stroke-linecap="round"/>
<path d="M718.966 238.478C741.813 236.193 765.946 228.532 788.637 224.586C816.532 219.735 845.14 216.992 872.628 210.053C874.922 209.474 882.567 205.562 880.535 209.626" stroke="#00A1FC" stroke-width="10" stroke-linecap="round"/>
<path d="M738.2 300.028C750.479 299.083 762.729 294.235 774.211 290.197C813.205 276.485 851.93 261.997 891.007 248.522C914.37 240.466 961.32 225.013 961.32 225.013" stroke="#00A1FC" stroke-width="10" stroke-linecap="round"/>
<path d="M863.224 119.224C853.647 129.538 852.374 139.944 850.829 153.632C847.223 185.569 843.926 217.49 842.066 249.591C840.155 282.587 838.219 315.268 838.219 348.328C838.219 352.075 836.475 359.744 840.143 361.578" stroke="#00A1FC" stroke-width="10" stroke-linecap="round"/>
<path d="M1022.87 157.693C1022.29 163.537 1017.96 169.351 1015.6 174.577C1007.9 191.703 1001.64 209.423 993.805 226.51C981.778 252.748 968.783 278.722 961.747 306.867C957.392 324.288 962.294 311.869 967.09 303.875" stroke="#00A1FC" stroke-width="10" stroke-linecap="round"/>
<path d="M1017.1 167.31C1017.1 173.778 1020.15 178.04 1022.02 184.194C1029.09 207.527 1037.48 230.392 1044.88 253.651C1052.48 277.505 1062.68 300.165 1074.38 322.254C1075.97 325.269 1078.65 330.697 1078.65 325.033" stroke="#00A1FC" stroke-width="10" stroke-linecap="round"/>
<path d="M982.478 259.635C1000.62 259.635 1021.3 257.507 1039.22 254.72C1044.48 253.901 1072.75 254.12 1074.8 250.018" stroke="#00A1FC" stroke-width="10" stroke-linecap="round"/>
<path d="M1151.74 159.616C1169.36 159.616 1188.05 153.842 1205.49 151.068C1223.03 148.277 1243.46 148.076 1261.38 148.076" stroke="#00A1FC" stroke-width="10" stroke-linecap="round"/>
<path d="M1144.05 169.234C1141.64 169.535 1147.12 188.761 1147.89 191.674C1150.07 199.825 1149.14 207.861 1150.78 216.037C1151.35 218.918 1150.28 228.465 1152.17 230.356C1152.72 230.905 1161.97 220.509 1163.17 219.457C1167.43 215.733 1174.93 211.833 1180.59 211.549C1190.35 211.061 1203.63 213.296 1212.44 217.32C1236.45 228.299 1224.1 261.128 1211.79 276.946C1205.1 285.56 1193.29 293.889 1182.52 295.753C1174.9 297.072 1151.7 298.104 1159.43 298.104" stroke="#00A1FC" stroke-width="10" stroke-linecap="round"/>
<path d="M1322.93 138.459C1322.12 153.771 1318.24 169.232 1316.09 184.407C1313.07 205.733 1312.61 227.494 1310.96 248.95C1309.57 267.043 1307.54 285.802 1307.54 303.875C1307.54 318.055 1310.51 302.634 1312.56 296.929C1318.99 279.079 1326.65 261.947 1334.25 244.569C1336.24 240.022 1344.85 208.432 1351.78 207.703C1368.36 205.957 1385.28 208.823 1401.57 211.122C1421.57 213.941 1426.31 229.608 1432.56 247.026C1437.07 259.585 1439.57 272.276 1446.03 283.572C1449.58 289.79 1462.63 277.652 1465.26 275.023" stroke="#00A1FC" stroke-width="10" stroke-linecap="round"/>
<path d="M382.363 382.736C382.363 393.133 383.12 398.504 388.134 407.741C392.532 415.843 403.95 424.071 411.536 428.898C425.841 438.002 439.624 437.044 456.095 436.485C484.792 435.513 510.686 418.164 531.644 399.94C536.106 396.06 549.546 382.736 536.239 382.736" stroke="#00A1FC" stroke-width="10" stroke-linecap="round"/>
<path d="M424.679 251.942V253.865" stroke="#00A1FC" stroke-width="10" stroke-linecap="round"/>
<path d="M421.364 256.997C421.364 253.901 421.277 261.964 424.404 263.528C432.207 267.429 428.595 246.854 426.937 244.049C425.338 241.342 422.458 240.458 420.35 242.867C416.975 246.724 417.905 254.333 419.393 258.799C421.787 265.98 429.351 265.224 434.031 260.544C436.267 258.307 436.34 257.869 433.749 252.606C432.359 249.782 423.246 239.382 419.9 243.936C414.356 251.483 416.109 263.921 418.887 272.085C423.185 284.719 429.367 265.862 429.471 260.488C429.575 255.051 429.576 270.065 431.497 268.144" stroke="#00A1FC" stroke-width="10" stroke-linecap="round"/>
<path d="M496.351 259.024C495.558 251.087 480.111 250.867 475.296 254.182C472.009 256.445 468.594 269.318 474.508 265.554C476.565 264.246 477.558 260.57 477.886 258.348C478.029 257.378 478.541 248.776 477.098 253.394C475.818 257.488 474.919 264.75 476.535 268.932C477.36 271.068 479.988 272.183 481.151 269.72C483.828 264.053 481.464 244.657 481.151 250.917C481.007 253.809 481.225 256.837 482.615 259.418C484.175 262.315 482.902 256.823 482.559 255.984C478.306 245.589 473.665 266.111 477.661 271.972C482.53 279.113 488.827 267.281 486.218 262.064" stroke="#00A1FC" stroke-width="10" stroke-linecap="round"/>
</svg>
